<?xml version="1.0" encoding="UTF-8"?>
<svg version="1.1" xmlns="http://www.w3.org/2000/svg" width="512" height="512">
<path d="M0 0 C4.16347012 3.4964018 8.08707008 7.22822917 12 11 C13.07701172 11.98226562 13.07701172 11.98226562 14.17578125 12.984375 C20.46536293 18.88322115 25.23469978 25.86116307 30 33 C30.63035156 33.93457031 31.26070313 34.86914062 31.91015625 35.83203125 C35.7340925 41.92071334 38.54590444 48.33466425 41.1875 55 C41.5086377 55.78705322 41.82977539 56.57410645 42.16064453 57.38500977 C48.05963386 72.9312093 49.60157113 88.97436016 49.390625 105.453125 C49.3831335 107.21815335 49.37745441 108.98319022 49.37347412 110.74822998 C49.35844604 115.318485 49.31937176 119.88820392 49.2746582 124.45825195 C49.23320245 129.15178176 49.21535749 133.84540107 49.1953125 138.5390625 C49.15284668 147.69293955 49.08488543 156.84642463 49 166 C49.72477539 165.97905273 50.44955078 165.95810547 51.19628906 165.93652344 C54.54737928 165.85229304 57.89824571 165.80100496 61.25 165.75 C62.38953125 165.71648437 63.5290625 165.68296875 64.703125 165.6484375 C79.31052541 165.48244431 90.13453333 170.46357688 100.75 180.3125 C109.89862601 189.97897277 113.47392309 201.29683537 113.38768005 214.38497925 C113.39575836 215.8796756 113.39575836 215.8796756 113.40399987 217.40456784 C113.41821826 220.7175943 113.41119076 224.03021775 113.40405273 227.34326172 C113.4097595 229.72918009 113.41672495 232.11509572 113.42485046 234.50100708 C113.44090568 240.29363672 113.44288928 246.08614165 113.43763756 251.87878881 C113.43358477 256.59051031 113.43505254 261.30219985 113.44038582 266.01391983 C113.44113424 266.6862884 113.44188266 267.35865697 113.44265376 268.05140034 C113.44418535 269.41762423 113.4457237 270.78384812 113.44726873 272.15007199 C113.46097514 284.94267862 113.45556929 297.73522398 113.44408352 310.52782919 C113.43415407 322.21062745 113.44709008 333.89326726 113.47101771 345.57604109 C113.49544739 357.59524396 113.50500704 369.61437316 113.49836498 381.63360035 C113.49488121 388.3721427 113.49704886 395.11056329 113.51461601 401.84908676 C113.53011504 408.18739219 113.52609636 414.52539579 113.50731087 420.86368942 C113.50363318 423.18396447 113.50670939 425.50426203 113.51719666 427.8245163 C113.59505902 446.48192967 111.87315645 459.53810142 98.6875 473.75 C88.13687125 483.7354165 76.32452765 486.46086697 62.18533325 486.38768005 C60.92752167 486.39306559 59.66971008 486.39845113 58.37378299 486.40399987 C54.9077836 486.4183762 51.44202357 486.41423447 47.97601151 486.40683305 C44.22811581 486.40208417 40.48027063 486.41462639 36.73239136 486.42485046 C29.39971185 486.44201037 22.06711814 486.4428843 14.73442377 486.43763756 C8.77175093 486.43358929 2.80910337 486.4350472 -3.15356827 486.44038582 C-4.00355996 486.44113424 -4.85355164 486.44188266 -5.72930066 486.44265376 C-7.45629255 486.44418531 -9.18328443 486.44572366 -10.91027631 486.44726873 C-27.09072645 486.46098368 -43.27112818 486.45556322 -59.4515772 486.44408352 C-74.23829536 486.43415275 -89.02488835 486.44709089 -103.8115872 486.47101771 C-119.01290156 486.49542917 -134.21415767 486.50501152 -149.41549122 486.49836498 C-157.94254708 486.49487724 -166.46950671 486.49707538 -174.9965477 486.51461601 C-182.25555788 486.52936363 -189.51440408 486.52994012 -196.77341114 486.5125451 C-200.47320679 486.5040536 -204.17270982 486.50183978 -207.87248993 486.51719666 C-211.8923506 486.53367483 -215.91151025 486.51884913 -219.93136597 486.50120544 C-221.08800275 486.51081045 -222.24463953 486.52041546 -223.43632591 486.53031152 C-237.6510235 486.40239505 -248.42443567 481.26745466 -258.75 471.6875 C-267.89862601 462.02102723 -271.47392309 450.70316463 -271.38768005 437.61502075 C-271.39306559 436.61855652 -271.39845113 435.62209228 -271.40399987 434.59543216 C-271.41821826 431.2824057 -271.41119076 427.96978225 -271.40405273 424.65673828 C-271.4097595 422.27081991 -271.41672495 419.88490428 -271.42485046 417.49899292 C-271.44090568 411.70636328 -271.44288928 405.91385835 -271.43763756 400.12121119 C-271.43358477 395.40948969 -271.43505254 390.69780015 -271.44038582 385.98608017 C-271.44113424 385.3137116 -271.44188266 384.64134303 -271.44265376 383.94859966 C-271.44418535 382.58237577 -271.4457237 381.21615188 -271.44726873 379.84992801 C-271.46097514 367.05732138 -271.45556929 354.26477602 -271.44408352 341.47217081 C-271.43415407 329.78937255 -271.44709008 318.10673274 -271.47101771 306.42395891 C-271.49544739 294.40475604 -271.50500704 282.38562684 -271.49836498 270.36639965 C-271.49488121 263.6278573 -271.49704886 256.88943671 -271.51461601 250.15091324 C-271.53011504 243.81260781 -271.52609636 237.47460421 -271.50731087 231.13631058 C-271.50363318 228.81603553 -271.50670939 226.49573797 -271.51719666 224.1754837 C-271.59505902 205.51807033 -269.87315645 192.46189858 -256.6875 178.25 C-245.83232481 167.97635205 -233.9011937 165.49671318 -219.375 165.8125 C-218.18003906 165.82603516 -216.98507813 165.83957031 -215.75390625 165.85351562 C-212.835452 165.88853708 -209.91797652 165.93765007 -207 166 C-207.00888245 165.04216614 -207.01776489 164.08433228 -207.0269165 163.09747314 C-207.10872933 153.97976186 -207.16830889 144.862127 -207.20724869 135.74412918 C-207.2279424 131.05875355 -207.25591758 126.37367899 -207.30175781 121.68847656 C-207.3458775 117.14965701 -207.36927316 112.61112319 -207.37950897 108.07210541 C-207.38678385 106.35811628 -207.4009809 104.64413911 -207.42292023 102.93027496 C-207.85712565 67.5365679 -194.50475226 36.42184628 -170 11 C-169.01773438 9.92298828 -169.01773438 9.92298828 -168.015625 8.82421875 C-162.11677885 2.53463707 -155.13883693 -2.23469978 -148 -7 C-147.06542969 -7.63035156 -146.13085938 -8.26070312 -145.16796875 -8.91015625 C-101.47012457 -36.35415281 -40.12596623 -31.83598863 0 0 Z M-136 39 C-136.76183594 39.66644531 -137.52367187 40.33289063 -138.30859375 41.01953125 C-153.36125043 55.08085179 -161.48162729 74.85301832 -164 95 C-164 118.43 -164 141.86 -164 166 C-107.9 166 -51.8 166 6 166 C9.9523636 100.39695071 9.9523636 100.39695071 -16 45 C-16.66644531 44.23816406 -17.33289063 43.47632812 -18.01953125 42.69140625 C-31.35265539 28.41828449 -52.4121791 17.85164439 -72 17 C-73.0003125 16.9484375 -74.000625 16.896875 -75.03125 16.84375 C-97.74473925 16.22987191 -118.91381428 23.96971305 -136 39 Z M-111.3125 266.3125 C-119.48044311 276.60919883 -122.08689785 288.06870251 -121 301 C-119.27930343 309.88663544 -115.15430858 317.38311267 -109 324 C-108.35542847 324.37832474 -107.71085693 324.75664948 -107.04675293 325.1464386 C-103.67731619 327.14809155 -101.38499461 328.64607989 -100.28289795 332.52185059 C-100.04385246 335.66129251 -100.04917772 338.71599956 -100.140625 341.86328125 C-100.13923523 343.00983688 -100.13784546 344.15639252 -100.13641357 345.33769226 C-100.13672466 348.99726907 -100.18980649 352.65345688 -100.25 356.3125 C-100.28905486 359.96027204 -100.31634001 363.60718968 -100.32073975 367.25517273 C-100.32554494 369.52144686 -100.35102165 371.787803 -100.40045166 374.05354309 C-100.44449012 381.56577099 -99.54014086 388.18069945 -94.25982666 393.87739563 C-88.79700718 398.8985673 -83.94669997 400.49521753 -76.55859375 400.30859375 C-69.8439288 399.4987334 -65.49654429 396.00989299 -61.2265625 390.9765625 C-57.30770464 384.66146034 -57.80882762 378.26412898 -57.9375 371.1015625 C-57.9464341 368.74219543 -57.95286708 366.38281781 -57.95703125 364.0234375 C-57.97127716 360.32048334 -58.00009126 356.62028658 -58.07177734 352.91796875 C-58.13526704 349.33199429 -58.13529401 345.75048757 -58.125 342.1640625 C-58.16101318 341.06486481 -58.19702637 339.96566711 -58.23413086 338.8331604 C-58.17562436 334.07808156 -58.0673651 331.17111722 -54.78269958 327.56716919 C-52.26391671 325.56343323 -49.67020234 323.79239062 -47 322 C-39.1183129 312.6957645 -36.34332987 302.54478571 -36.65625 290.5234375 C-37.76213172 279.18814985 -42.97787539 269.41275348 -51.3125 261.6875 C-69.91590873 246.93018925 -95.19852034 248.92744307 -111.3125 266.3125 Z " fill="#acacac" transform="translate(335,26)"/>
</svg>
