<?xml version="1.0" encoding="UTF-8"?>
<svg version="1.1" xmlns="http://www.w3.org/2000/svg" width="512" height="512">
<path d="M0 0 C0.82371094 0.71542969 1.64742188 1.43085938 2.49609375 2.16796875 C33.83954392 29.79519082 57.09144516 67.77012457 60.23925781 110.22705078 C60.41370487 113.59076038 60.50943207 116.94478441 60.5625 120.3125 C60.58948975 121.35631836 60.61647949 122.40013672 60.64428711 123.47558594 C60.6053848 131.09549923 58.81082871 135.98476643 53.55712891 141.52026367 C48.56024257 146.04945712 43.41131521 147.24847671 36.82077312 147.25726891 C35.59518867 147.2637178 34.36960422 147.27016669 33.10688084 147.276811 C31.75514732 147.27386903 30.4034142 147.27073362 29.05168152 147.26742554 C27.60923488 147.27116338 26.16679026 147.27576543 24.72434884 147.28115618 C20.76470635 147.29338507 16.80514836 147.29312585 12.84549129 147.29076743 C8.57338782 147.29035924 4.30131143 147.30139864 0.02922058 147.31088257 C-8.33904719 147.32749282 -16.70728679 147.33299212 -25.07556967 147.33410732 C-31.87789024 147.33505777 -38.68020152 147.33916786 -45.48251915 147.34550858 C-64.76961895 147.36312088 -84.0566965 147.37234744 -103.3438044 147.37084763 C-104.38349592 147.37076772 -105.42318744 147.3706878 -106.49438477 147.37060547 C-107.53534613 147.37052371 -108.5763075 147.37044195 -109.64881315 147.37035771 C-126.52002403 147.36954476 -143.39114563 147.38868463 -160.26233069 147.4168822 C-177.58679058 147.44560882 -194.91120693 147.45942263 -212.23569125 147.45769465 C-221.96158187 147.45703068 -231.6873789 147.46252597 -241.41324806 147.48405075 C-249.6938715 147.50225959 -257.97435893 147.50661231 -266.25499371 147.4930319 C-270.47892642 147.48650081 -274.70259815 147.48639007 -278.92650604 147.5037384 C-282.79613168 147.51946803 -286.6652894 147.51660692 -290.53490361 147.49917014 C-291.93191627 147.49609998 -293.32896384 147.49973332 -294.72593532 147.51089029 C-303.30112941 147.57481992 -311.34738575 147.42283168 -317.87176067 141.22068155 C-326.06070802 132.22137348 -324.68782169 122.07022901 -324.23828125 110.48974609 C-321.66360966 72.78241441 -302.62715637 38.87368472 -277 12 C-275.84951172 10.75283203 -275.84951172 10.75283203 -274.67578125 9.48046875 C-246.28369848 -20.35773029 -205.88369457 -36.94928069 -166 -44 C-165.26249512 -44.13132324 -164.52499023 -44.26264648 -163.76513672 -44.39794922 C-107.76374 -53.76435688 -42.73646458 -38.01113191 0 0 Z " fill="#acacac" transform="translate(388,323)"/>
<path d="M0 0 C20.18329154 17.51658721 34.69391106 42.66140579 37.015625 69.6171875 C39.03229681 100.67953523 31.46381263 128.7681434 11.015625 152.6171875 C10.29826172 153.53371094 10.29826172 153.53371094 9.56640625 154.46875 C-5.51787938 173.39974457 -31.32943163 185.3094013 -54.984375 188.6171875 C-77.5301643 190.25069629 -98.84816766 188.41726578 -118.984375 177.6171875 C-119.93441406 177.14410156 -120.88445312 176.67101562 -121.86328125 176.18359375 C-128.58644818 172.73317845 -134.24169703 168.50231792 -139.984375 163.6171875 C-140.64953125 163.09769531 -141.3146875 162.57820312 -142 162.04296875 C-162.11676502 145.81053844 -174.18707436 118.84592265 -176.984375 93.6171875 C-179.0954189 63.87243265 -171.8808712 35.89781362 -152.609375 12.8046875 C-113.66503638 -32.06493303 -45.83125288 -38.33780285 0 0 Z " fill="#acacac" transform="translate(325.984375,67.3828125)"/>
</svg>
